<?xml version="1.0" encoding="UTF-8" standalone="no"?>
<!DOCTYPE svg PUBLIC "-//W3C//DTD SVG 1.1//EN"
 "http://www.w3.org/Graphics/SVG/1.1/DTD/svg11.dtd">
<!-- Generated by graphviz version 2.43.0 (0)
 -->
<!-- Title: DependencyTree Pages: 1 -->
<svg width="714pt" height="260pt"
 viewBox="0.00 0.00 714.29 260.00" xmlns="http://www.w3.org/2000/svg" xmlns:xlink="http://www.w3.org/1999/xlink">
<g id="graph0" class="graph" transform="scale(1 1) rotate(0) translate(4 256)">
<title>DependencyTree</title>
<polygon fill="white" stroke="transparent" points="-4,4 -4,-256 710.29,-256 710.29,4 -4,4"/>
<!-- controllers__TheMainApp -->
<g id="node1" class="node">
<title>controllers__TheMainApp</title>
<ellipse fill="none" stroke="black" cx="354.44" cy="-234" rx="125.38" ry="18"/>
<text text-anchor="middle" x="354.44" y="-230.3" font-family="Times,serif" font-size="14.00">controllers::TheMainApp</text>
</g>
<!-- TemperatureSensor -->
<g id="node2" class="node">
<title>TemperatureSensor</title>
<ellipse fill="none" stroke="black" cx="241.44" cy="-162" rx="102.88" ry="18"/>
<text text-anchor="middle" x="241.44" y="-158.3" font-family="Times,serif" font-size="14.00">TemperatureSensor</text>
</g>
<!-- controllers__TheMainApp&#45;&gt;TemperatureSensor -->
<g id="edge8" class="edge">
<title>controllers__TheMainApp&#45;&gt;TemperatureSensor</title>
<path fill="none" stroke="black" d="M327.67,-216.41C312.47,-207 293.26,-195.1 276.83,-184.92"/>
<polygon fill="black" stroke="black" points="278.38,-181.76 268.03,-179.47 274.69,-187.71 278.38,-181.76"/>
</g>
<!-- GasSensor -->
<g id="node4" class="node">
<title>GasSensor</title>
<ellipse fill="none" stroke="black" cx="60.44" cy="-162" rx="60.39" ry="18"/>
<text text-anchor="middle" x="60.44" y="-158.3" font-family="Times,serif" font-size="14.00">GasSensor</text>
</g>
<!-- controllers__TheMainApp&#45;&gt;GasSensor -->
<g id="edge9" class="edge">
<title>controllers__TheMainApp&#45;&gt;GasSensor</title>
<path fill="none" stroke="black" d="M291.36,-218.32C246.24,-207.78 184.07,-193.16 129.44,-180 124.82,-178.88 120.01,-177.72 115.2,-176.54"/>
<polygon fill="black" stroke="black" points="115.88,-173.11 105.34,-174.13 114.22,-179.91 115.88,-173.11"/>
</g>
<!-- rolling_display__Impl -->
<g id="node6" class="node">
<title>rolling_display__Impl</title>
<ellipse fill="none" stroke="black" cx="467.44" cy="-162" rx="105.08" ry="18"/>
<text text-anchor="middle" x="467.44" y="-158.3" font-family="Times,serif" font-size="14.00">rolling_display::Impl</text>
</g>
<!-- controllers__TheMainApp&#45;&gt;rolling_display__Impl -->
<g id="edge10" class="edge">
<title>controllers__TheMainApp&#45;&gt;rolling_display__Impl</title>
<path fill="none" stroke="black" d="M381.22,-216.41C396.42,-207 415.63,-195.1 432.06,-184.92"/>
<polygon fill="black" stroke="black" points="434.2,-187.71 440.86,-179.47 430.51,-181.76 434.2,-187.71"/>
</g>
<!-- SerialPort -->
<g id="node9" class="node">
<title>SerialPort</title>
<ellipse fill="none" stroke="black" cx="648.44" cy="-162" rx="57.69" ry="18"/>
<text text-anchor="middle" x="648.44" y="-158.3" font-family="Times,serif" font-size="14.00">SerialPort</text>
</g>
<!-- controllers__TheMainApp&#45;&gt;SerialPort -->
<g id="edge11" class="edge">
<title>controllers__TheMainApp&#45;&gt;SerialPort</title>
<path fill="none" stroke="black" d="M418.12,-218.47C463.67,-208 526.4,-193.41 581.44,-180 586.01,-178.89 590.75,-177.72 595.51,-176.53"/>
<polygon fill="black" stroke="black" points="596.38,-179.92 605.23,-174.1 594.67,-173.13 596.38,-179.92"/>
</g>
<!-- Blink -->
<g id="node3" class="node">
<title>Blink</title>
<ellipse fill="none" stroke="black" cx="143.44" cy="-90" rx="34.39" ry="18"/>
<text text-anchor="middle" x="143.44" y="-86.3" font-family="Times,serif" font-size="14.00">Blink</text>
</g>
<!-- TemperatureSensor&#45;&gt;Blink -->
<g id="edge2" class="edge">
<title>TemperatureSensor&#45;&gt;Blink</title>
<path fill="none" stroke="black" d="M218.22,-144.41C204.12,-134.34 186.04,-121.42 171.19,-110.82"/>
<polygon fill="black" stroke="black" points="173.05,-107.84 162.87,-104.88 168.98,-113.54 173.05,-107.84"/>
</g>
<!-- I2CPort -->
<g id="node8" class="node">
<title>I2CPort</title>
<ellipse fill="none" stroke="black" cx="241.44" cy="-18" rx="46.29" ry="18"/>
<text text-anchor="middle" x="241.44" y="-14.3" font-family="Times,serif" font-size="14.00">I2CPort</text>
</g>
<!-- TemperatureSensor&#45;&gt;I2CPort -->
<g id="edge3" class="edge">
<title>TemperatureSensor&#45;&gt;I2CPort</title>
<path fill="none" stroke="black" d="M241.44,-143.87C241.44,-119.67 241.44,-75.21 241.44,-46.39"/>
<polygon fill="black" stroke="black" points="244.94,-46.19 241.44,-36.19 237.94,-46.19 244.94,-46.19"/>
</g>
<!-- 13 -->
<g id="node7" class="node">
<title>13</title>
<ellipse fill="none" stroke="black" cx="143.44" cy="-18" rx="27" ry="18"/>
<text text-anchor="middle" x="143.44" y="-14.3" font-family="Times,serif" font-size="14.00">13</text>
</g>
<!-- Blink&#45;&gt;13 -->
<g id="edge1" class="edge">
<title>Blink&#45;&gt;13</title>
<path fill="none" stroke="black" d="M143.44,-71.7C143.44,-63.98 143.44,-54.71 143.44,-46.11"/>
<polygon fill="black" stroke="black" points="146.94,-46.1 143.44,-36.1 139.94,-46.1 146.94,-46.1"/>
</g>
<!-- GasSensor&#45;&gt;Blink -->
<g id="edge4" class="edge">
<title>GasSensor&#45;&gt;Blink</title>
<path fill="none" stroke="black" d="M79.7,-144.76C91.17,-135.09 105.86,-122.7 118.24,-112.25"/>
<polygon fill="black" stroke="black" points="120.61,-114.84 125.99,-105.72 116.09,-109.49 120.61,-114.84"/>
</g>
<!-- GasSensor&#45;&gt;I2CPort -->
<g id="edge5" class="edge">
<title>GasSensor&#45;&gt;I2CPort</title>
<path fill="none" stroke="black" d="M63.93,-143.94C68.83,-124.11 79.57,-91.6 100.44,-72 114.6,-58.7 159.8,-43 195.25,-32.15"/>
<polygon fill="black" stroke="black" points="196.39,-35.46 204.96,-29.22 194.37,-28.76 196.39,-35.46"/>
</g>
<!-- seven_seg_display__Impl -->
<g id="node5" class="node">
<title>seven_seg_display__Impl</title>
<ellipse fill="none" stroke="black" cx="429.44" cy="-90" rx="122.38" ry="18"/>
<text text-anchor="middle" x="429.44" y="-86.3" font-family="Times,serif" font-size="14.00">seven_seg_display::Impl</text>
</g>
<!-- seven_seg_display__Impl&#45;&gt;I2CPort -->
<g id="edge6" class="edge">
<title>seven_seg_display__Impl&#45;&gt;I2CPort</title>
<path fill="none" stroke="black" d="M386.78,-73.12C355.8,-61.58 314.07,-46.04 283.27,-34.57"/>
<polygon fill="black" stroke="black" points="284.28,-31.21 273.69,-31.01 281.84,-37.77 284.28,-31.21"/>
</g>
<!-- rolling_display__Impl&#45;&gt;seven_seg_display__Impl -->
<g id="edge7" class="edge">
<title>rolling_display__Impl&#45;&gt;seven_seg_display__Impl</title>
<path fill="none" stroke="black" d="M458.25,-144.05C453.88,-136.01 448.56,-126.2 443.68,-117.23"/>
<polygon fill="black" stroke="black" points="446.67,-115.39 438.82,-108.28 440.52,-118.73 446.67,-115.39"/>
</g>
</g>
</svg>
