<?xml version="1.0" encoding="UTF-8" standalone="no"?>
<!DOCTYPE svg PUBLIC "-//W3C//DTD SVG 1.1//EN"
 "http://www.w3.org/Graphics/SVG/1.1/DTD/svg11.dtd">
<!-- Generated by graphviz version 2.43.0 (0)
 -->
<!-- Title: RuntimeInit Pages: 1 -->
<svg width="793pt" height="404pt"
 viewBox="0.00 0.00 792.79 404.00" xmlns="http://www.w3.org/2000/svg" xmlns:xlink="http://www.w3.org/1999/xlink">
<g id="graph0" class="graph" transform="scale(1 1) rotate(0) translate(4 400)">
<title>RuntimeInit</title>
<polygon fill="white" stroke="transparent" points="-4,4 -4,-400 788.79,-400 788.79,4 -4,4"/>
<!-- setup_idx_input -->
<g id="node1" class="node">
<title>setup_idx_input</title>
<ellipse fill="none" stroke="black" cx="577.19" cy="-162" rx="83.69" ry="18"/>
<text text-anchor="middle" x="577.19" y="-158.3" font-family="Times,serif" font-size="14.00">setup_idx_input</text>
</g>
<!-- setup_dac_connection -->
<g id="node9" class="node">
<title>setup_dac_connection</title>
<ellipse fill="none" stroke="black" cx="577.19" cy="-90" rx="111.58" ry="18"/>
<text text-anchor="middle" x="577.19" y="-86.3" font-family="Times,serif" font-size="14.00">setup_dac_connection</text>
</g>
<!-- setup_idx_input&#45;&gt;setup_dac_connection -->
<g id="edge9" class="edge">
<title>setup_idx_input&#45;&gt;setup_dac_connection</title>
<path fill="none" stroke="black" d="M577.19,-143.7C577.19,-135.98 577.19,-126.71 577.19,-118.11"/>
<polygon fill="black" stroke="black" points="580.69,-118.1 577.19,-108.1 573.69,-118.1 580.69,-118.1"/>
</g>
<!-- init_position_lock_led -->
<g id="node2" class="node">
<title>init_position_lock_led</title>
<ellipse fill="none" stroke="black" cx="109.19" cy="-306" rx="109.38" ry="18"/>
<text text-anchor="middle" x="109.19" y="-302.3" font-family="Times,serif" font-size="14.00">init_position_lock_led</text>
</g>
<!-- enable_interrupt -->
<g id="node6" class="node">
<title>enable_interrupt</title>
<ellipse fill="none" stroke="black" cx="519.19" cy="-234" rx="88.28" ry="18"/>
<text text-anchor="middle" x="519.19" y="-230.3" font-family="Times,serif" font-size="14.00">enable_interrupt</text>
</g>
<!-- init_position_lock_led&#45;&gt;enable_interrupt -->
<g id="edge2" class="edge">
<title>init_position_lock_led&#45;&gt;enable_interrupt</title>
<path fill="none" stroke="black" d="M182.02,-292.57C255.64,-280 368.92,-260.66 443.54,-247.92"/>
<polygon fill="black" stroke="black" points="444.53,-251.3 453.8,-246.16 443.36,-244.4 444.53,-251.3"/>
</g>
<!-- search_idx -->
<g id="node3" class="node">
<title>search_idx</title>
<ellipse fill="none" stroke="black" cx="577.19" cy="-18" rx="59.59" ry="18"/>
<text text-anchor="middle" x="577.19" y="-14.3" font-family="Times,serif" font-size="14.00">search_idx</text>
</g>
<!-- init_alarm -->
<g id="node4" class="node">
<title>init_alarm</title>
<ellipse fill="none" stroke="black" cx="294.19" cy="-306" rx="57.69" ry="18"/>
<text text-anchor="middle" x="294.19" y="-302.3" font-family="Times,serif" font-size="14.00">init_alarm</text>
</g>
<!-- init_alarm&#45;&gt;enable_interrupt -->
<g id="edge14" class="edge">
<title>init_alarm&#45;&gt;enable_interrupt</title>
<path fill="none" stroke="black" d="M333.64,-292.73C369.5,-281.57 422.81,-264.98 463.1,-252.45"/>
<polygon fill="black" stroke="black" points="464.27,-255.75 472.78,-249.44 462.19,-249.07 464.27,-255.75"/>
</g>
<!-- disable_interrupt -->
<g id="node5" class="node">
<title>disable_interrupt</title>
<ellipse fill="none" stroke="black" cx="443.19" cy="-378" rx="90.98" ry="18"/>
<text text-anchor="middle" x="443.19" y="-374.3" font-family="Times,serif" font-size="14.00">disable_interrupt</text>
</g>
<!-- disable_interrupt&#45;&gt;init_position_lock_led -->
<g id="edge1" class="edge">
<title>disable_interrupt&#45;&gt;init_position_lock_led</title>
<path fill="none" stroke="black" d="M383.09,-364.4C327.23,-352.7 243.83,-335.22 183.75,-322.63"/>
<polygon fill="black" stroke="black" points="184.44,-319.2 173.94,-320.57 183.01,-326.05 184.44,-319.2"/>
</g>
<!-- disable_interrupt&#45;&gt;init_alarm -->
<g id="edge13" class="edge">
<title>disable_interrupt&#45;&gt;init_alarm</title>
<path fill="none" stroke="black" d="M409.38,-361.12C387.04,-350.62 357.67,-336.82 334.17,-325.78"/>
<polygon fill="black" stroke="black" points="335.37,-322.48 324.83,-321.39 332.39,-328.81 335.37,-322.48"/>
</g>
<!-- disable_usart -->
<g id="node7" class="node">
<title>disable_usart</title>
<ellipse fill="none" stroke="black" cx="443.19" cy="-306" rx="72.59" ry="18"/>
<text text-anchor="middle" x="443.19" y="-302.3" font-family="Times,serif" font-size="14.00">disable_usart</text>
</g>
<!-- disable_interrupt&#45;&gt;disable_usart -->
<g id="edge5" class="edge">
<title>disable_interrupt&#45;&gt;disable_usart</title>
<path fill="none" stroke="black" d="M443.19,-359.7C443.19,-351.98 443.19,-342.71 443.19,-334.11"/>
<polygon fill="black" stroke="black" points="446.69,-334.1 443.19,-324.1 439.69,-334.1 446.69,-334.1"/>
</g>
<!-- timer0_init -->
<g id="node8" class="node">
<title>timer0_init</title>
<ellipse fill="none" stroke="black" cx="596.19" cy="-306" rx="61.99" ry="18"/>
<text text-anchor="middle" x="596.19" y="-302.3" font-family="Times,serif" font-size="14.00">timer0_init</text>
</g>
<!-- disable_interrupt&#45;&gt;timer0_init -->
<g id="edge3" class="edge">
<title>disable_interrupt&#45;&gt;timer0_init</title>
<path fill="none" stroke="black" d="M477.53,-361.29C500.55,-350.76 530.98,-336.83 555.26,-325.72"/>
<polygon fill="black" stroke="black" points="556.94,-328.81 564.58,-321.46 554.03,-322.44 556.94,-328.81"/>
</g>
<!-- setup_i2c -->
<g id="node10" class="node">
<title>setup_i2c</title>
<ellipse fill="none" stroke="black" cx="730.19" cy="-306" rx="54.69" ry="18"/>
<text text-anchor="middle" x="730.19" y="-302.3" font-family="Times,serif" font-size="14.00">setup_i2c</text>
</g>
<!-- disable_interrupt&#45;&gt;setup_i2c -->
<g id="edge11" class="edge">
<title>disable_interrupt&#45;&gt;setup_i2c</title>
<path fill="none" stroke="black" d="M500.39,-363.98C545.73,-353.54 610.63,-338.32 667.19,-324 671.27,-322.97 675.49,-321.88 679.72,-320.77"/>
<polygon fill="black" stroke="black" points="680.8,-324.1 689.57,-318.16 679.01,-317.34 680.8,-324.1"/>
</g>
<!-- enable_interrupt&#45;&gt;setup_idx_input -->
<g id="edge7" class="edge">
<title>enable_interrupt&#45;&gt;setup_idx_input</title>
<path fill="none" stroke="black" d="M533.23,-216.05C540.28,-207.54 548.96,-197.07 556.74,-187.68"/>
<polygon fill="black" stroke="black" points="559.59,-189.72 563.28,-179.79 554.2,-185.26 559.59,-189.72"/>
</g>
<!-- disable_usart&#45;&gt;enable_interrupt -->
<g id="edge6" class="edge">
<title>disable_usart&#45;&gt;enable_interrupt</title>
<path fill="none" stroke="black" d="M461.2,-288.41C470.88,-279.5 482.98,-268.36 493.61,-258.56"/>
<polygon fill="black" stroke="black" points="496.06,-261.06 501.05,-251.71 491.32,-255.91 496.06,-261.06"/>
</g>
<!-- timer0_init&#45;&gt;enable_interrupt -->
<g id="edge4" class="edge">
<title>timer0_init&#45;&gt;enable_interrupt</title>
<path fill="none" stroke="black" d="M578.33,-288.76C568.46,-279.79 556.03,-268.49 545.11,-258.56"/>
<polygon fill="black" stroke="black" points="547.24,-255.77 537.49,-251.63 542.53,-260.95 547.24,-255.77"/>
</g>
<!-- setup_dac_connection&#45;&gt;search_idx -->
<g id="edge10" class="edge">
<title>setup_dac_connection&#45;&gt;search_idx</title>
<path fill="none" stroke="black" d="M577.19,-71.7C577.19,-63.98 577.19,-54.71 577.19,-46.11"/>
<polygon fill="black" stroke="black" points="580.69,-46.1 577.19,-36.1 573.69,-46.1 580.69,-46.1"/>
</g>
<!-- setup_i2c&#45;&gt;setup_idx_input -->
<g id="edge8" class="edge">
<title>setup_i2c&#45;&gt;setup_idx_input</title>
<path fill="none" stroke="black" d="M712.64,-288.71C685.72,-263.73 634.1,-215.81 602.94,-186.9"/>
<polygon fill="black" stroke="black" points="605.19,-184.22 595.48,-179.98 600.43,-189.35 605.19,-184.22"/>
</g>
<!-- setup_i2c&#45;&gt;enable_interrupt -->
<g id="edge12" class="edge">
<title>setup_i2c&#45;&gt;enable_interrupt</title>
<path fill="none" stroke="black" d="M692.95,-292.65C659.72,-281.62 610.65,-265.34 573.12,-252.89"/>
<polygon fill="black" stroke="black" points="573.95,-249.48 563.36,-249.65 571.75,-256.12 573.95,-249.48"/>
</g>
</g>
</svg>
