<?xml version="1.0" encoding="UTF-8" standalone="no"?>
<!DOCTYPE svg PUBLIC "-//W3C//DTD SVG 1.1//EN"
 "http://www.w3.org/Graphics/SVG/1.1/DTD/svg11.dtd">
<!-- Generated by graphviz version 2.43.0 (0)
 -->
<!-- Title: RuntimeInit Pages: 1 -->
<svg width="465pt" height="404pt"
 viewBox="0.00 0.00 464.59 404.00" xmlns="http://www.w3.org/2000/svg" xmlns:xlink="http://www.w3.org/1999/xlink">
<g id="graph0" class="graph" transform="scale(1 1) rotate(0) translate(4 400)">
<title>RuntimeInit</title>
<polygon fill="white" stroke="transparent" points="-4,4 -4,-400 460.59,-400 460.59,4 -4,4"/>
<!-- timer0_init -->
<g id="node1" class="node">
<title>timer0_init</title>
<ellipse fill="none" stroke="black" cx="61.74" cy="-234" rx="61.99" ry="18"/>
<text text-anchor="middle" x="61.74" y="-230.3" font-family="Times,serif" font-size="14.00">timer0_init</text>
</g>
<!-- enable_interrupt -->
<g id="node9" class="node">
<title>enable_interrupt</title>
<ellipse fill="none" stroke="black" cx="278.74" cy="-162" rx="88.28" ry="18"/>
<text text-anchor="middle" x="278.74" y="-158.3" font-family="Times,serif" font-size="14.00">enable_interrupt</text>
</g>
<!-- timer0_init&#45;&gt;enable_interrupt -->
<g id="edge3" class="edge">
<title>timer0_init&#45;&gt;enable_interrupt</title>
<path fill="none" stroke="black" d="M101.55,-220.16C135.8,-209.11 185.58,-193.05 223.66,-180.77"/>
<polygon fill="black" stroke="black" points="225.13,-183.97 233.57,-177.57 222.98,-177.31 225.13,-183.97"/>
</g>
<!-- setup_serial -->
<g id="node2" class="node">
<title>setup_serial</title>
<ellipse fill="none" stroke="black" cx="208.74" cy="-234" rx="66.89" ry="18"/>
<text text-anchor="middle" x="208.74" y="-230.3" font-family="Times,serif" font-size="14.00">setup_serial</text>
</g>
<!-- setup_serial&#45;&gt;enable_interrupt -->
<g id="edge9" class="edge">
<title>setup_serial&#45;&gt;enable_interrupt</title>
<path fill="none" stroke="black" d="M225.33,-216.41C234.1,-207.65 245.01,-196.73 254.69,-187.06"/>
<polygon fill="black" stroke="black" points="257.19,-189.5 261.79,-179.96 252.24,-184.55 257.19,-189.5"/>
</g>
<!-- system_clk_init -->
<g id="node3" class="node">
<title>system_clk_init</title>
<ellipse fill="none" stroke="black" cx="247.74" cy="-306" rx="81.49" ry="18"/>
<text text-anchor="middle" x="247.74" y="-302.3" font-family="Times,serif" font-size="14.00">system_clk_init</text>
</g>
<!-- system_clk_init&#45;&gt;timer0_init -->
<g id="edge2" class="edge">
<title>system_clk_init&#45;&gt;timer0_init</title>
<path fill="none" stroke="black" d="M208.3,-290.15C178.85,-279.07 138.54,-263.9 107.65,-252.28"/>
<polygon fill="black" stroke="black" points="108.57,-248.88 97.98,-248.64 106.11,-255.43 108.57,-248.88"/>
</g>
<!-- system_clk_init&#45;&gt;setup_serial -->
<g id="edge8" class="edge">
<title>system_clk_init&#45;&gt;setup_serial</title>
<path fill="none" stroke="black" d="M238.3,-288.05C233.82,-280.01 228.36,-270.2 223.36,-261.23"/>
<polygon fill="black" stroke="black" points="226.29,-259.31 218.37,-252.28 220.18,-262.71 226.29,-259.31"/>
</g>
<!-- setup_i2c -->
<g id="node4" class="node">
<title>setup_i2c</title>
<ellipse fill="none" stroke="black" cx="348.74" cy="-234" rx="54.69" ry="18"/>
<text text-anchor="middle" x="348.74" y="-230.3" font-family="Times,serif" font-size="14.00">setup_i2c</text>
</g>
<!-- system_clk_init&#45;&gt;setup_i2c -->
<g id="edge4" class="edge">
<title>system_clk_init&#45;&gt;setup_i2c</title>
<path fill="none" stroke="black" d="M271.42,-288.59C285.27,-278.99 302.9,-266.78 317.82,-256.43"/>
<polygon fill="black" stroke="black" points="320.03,-259.16 326.25,-250.59 316.04,-253.41 320.03,-259.16"/>
</g>
<!-- setup_i2c&#45;&gt;enable_interrupt -->
<g id="edge5" class="edge">
<title>setup_i2c&#45;&gt;enable_interrupt</title>
<path fill="none" stroke="black" d="M332.51,-216.76C323.76,-208.01 312.78,-197.03 303.03,-187.28"/>
<polygon fill="black" stroke="black" points="305.41,-184.72 295.87,-180.12 300.46,-189.67 305.41,-184.72"/>
</g>
<!-- wait_for_serial -->
<g id="node5" class="node">
<title>wait_for_serial</title>
<ellipse fill="none" stroke="black" cx="278.74" cy="-18" rx="78.79" ry="18"/>
<text text-anchor="middle" x="278.74" y="-14.3" font-family="Times,serif" font-size="14.00">wait_for_serial</text>
</g>
<!-- disable_interrupt -->
<g id="node6" class="node">
<title>disable_interrupt</title>
<ellipse fill="none" stroke="black" cx="319.74" cy="-378" rx="90.98" ry="18"/>
<text text-anchor="middle" x="319.74" y="-374.3" font-family="Times,serif" font-size="14.00">disable_interrupt</text>
</g>
<!-- disable_interrupt&#45;&gt;system_clk_init -->
<g id="edge1" class="edge">
<title>disable_interrupt&#45;&gt;system_clk_init</title>
<path fill="none" stroke="black" d="M302.32,-360.05C293.29,-351.28 282.13,-340.43 272.26,-330.83"/>
<polygon fill="black" stroke="black" points="274.62,-328.25 265.01,-323.79 269.74,-333.27 274.62,-328.25"/>
</g>
<!-- init_led -->
<g id="node7" class="node">
<title>init_led</title>
<ellipse fill="none" stroke="black" cx="411.74" cy="-306" rx="44.69" ry="18"/>
<text text-anchor="middle" x="411.74" y="-302.3" font-family="Times,serif" font-size="14.00">init_led</text>
</g>
<!-- disable_interrupt&#45;&gt;init_led -->
<g id="edge11" class="edge">
<title>disable_interrupt&#45;&gt;init_led</title>
<path fill="none" stroke="black" d="M341.55,-360.41C354.13,-350.84 370.1,-338.69 383.62,-328.4"/>
<polygon fill="black" stroke="black" points="385.83,-331.11 391.67,-322.27 381.59,-325.54 385.83,-331.11"/>
</g>
<!-- init_led&#45;&gt;enable_interrupt -->
<g id="edge12" class="edge">
<title>init_led&#45;&gt;enable_interrupt</title>
<path fill="none" stroke="black" d="M417.28,-287.95C422.41,-268.71 427.25,-237.34 412.74,-216 399.7,-196.81 378.51,-184.56 356.79,-176.75"/>
<polygon fill="black" stroke="black" points="357.73,-173.38 347.14,-173.57 355.54,-180.03 357.73,-173.38"/>
</g>
<!-- ping_gas_sensor -->
<g id="node8" class="node">
<title>ping_gas_sensor</title>
<ellipse fill="none" stroke="black" cx="336.74" cy="-90" rx="87.18" ry="18"/>
<text text-anchor="middle" x="336.74" y="-86.3" font-family="Times,serif" font-size="14.00">ping_gas_sensor</text>
</g>
<!-- ping_gas_sensor&#45;&gt;wait_for_serial -->
<g id="edge7" class="edge">
<title>ping_gas_sensor&#45;&gt;wait_for_serial</title>
<path fill="none" stroke="black" d="M322.7,-72.05C315.65,-63.54 306.97,-53.07 299.19,-43.68"/>
<polygon fill="black" stroke="black" points="301.73,-41.26 292.66,-35.79 296.34,-45.72 301.73,-41.26"/>
</g>
<!-- enable_interrupt&#45;&gt;wait_for_serial -->
<g id="edge10" class="edge">
<title>enable_interrupt&#45;&gt;wait_for_serial</title>
<path fill="none" stroke="black" d="M262.28,-143.92C254.09,-134.22 245.04,-121.37 240.74,-108 235.85,-92.77 235.85,-87.23 240.74,-72 243.93,-62.08 249.74,-52.44 255.87,-44.17"/>
<polygon fill="black" stroke="black" points="258.81,-46.09 262.28,-36.08 253.33,-41.74 258.81,-46.09"/>
</g>
<!-- enable_interrupt&#45;&gt;ping_gas_sensor -->
<g id="edge6" class="edge">
<title>enable_interrupt&#45;&gt;ping_gas_sensor</title>
<path fill="none" stroke="black" d="M292.78,-144.05C299.84,-135.54 308.52,-125.07 316.29,-115.68"/>
<polygon fill="black" stroke="black" points="319.15,-117.72 322.83,-107.79 313.76,-113.26 319.15,-117.72"/>
</g>
</g>
</svg>
