<?xml version="1.0" encoding="UTF-8" standalone="no"?>
<!DOCTYPE svg PUBLIC "-//W3C//DTD SVG 1.1//EN"
 "http://www.w3.org/Graphics/SVG/1.1/DTD/svg11.dtd">
<!-- Generated by graphviz version 2.43.0 (0)
 -->
<!-- Title: RuntimeInit Pages: 1 -->
<svg width="599pt" height="476pt"
 viewBox="0.00 0.00 599.18 476.00" xmlns="http://www.w3.org/2000/svg" xmlns:xlink="http://www.w3.org/1999/xlink">
<g id="graph0" class="graph" transform="scale(1 1) rotate(0) translate(4 472)">
<title>RuntimeInit</title>
<polygon fill="white" stroke="transparent" points="-4,4 -4,-472 595.18,-472 595.18,4 -4,4"/>
<!-- init_led -->
<g id="node1" class="node">
<title>init_led</title>
<ellipse fill="none" stroke="black" cx="44.85" cy="-378" rx="44.69" ry="18"/>
<text text-anchor="middle" x="44.85" y="-374.3" font-family="Times,serif" font-size="14.00">init_led</text>
</g>
<!-- enable_interrupt -->
<g id="node4" class="node">
<title>enable_interrupt</title>
<ellipse fill="none" stroke="black" cx="164.85" cy="-234" rx="88.28" ry="18"/>
<text text-anchor="middle" x="164.85" y="-230.3" font-family="Times,serif" font-size="14.00">enable_interrupt</text>
</g>
<!-- init_led&#45;&gt;enable_interrupt -->
<g id="edge9" class="edge">
<title>init_led&#45;&gt;enable_interrupt</title>
<path fill="none" stroke="black" d="M32.24,-360.53C19.37,-341.55 3.33,-310.15 18.85,-288 33.46,-267.14 57.17,-254.46 81.27,-246.76"/>
<polygon fill="black" stroke="black" points="82.26,-250.12 90.87,-243.95 80.29,-243.4 82.26,-250.12"/>
</g>
<!-- disable_interrupt -->
<g id="node2" class="node">
<title>disable_interrupt</title>
<ellipse fill="none" stroke="black" cx="116.85" cy="-450" rx="90.98" ry="18"/>
<text text-anchor="middle" x="116.85" y="-446.3" font-family="Times,serif" font-size="14.00">disable_interrupt</text>
</g>
<!-- disable_interrupt&#45;&gt;init_led -->
<g id="edge8" class="edge">
<title>disable_interrupt&#45;&gt;init_led</title>
<path fill="none" stroke="black" d="M99.42,-432.05C90.13,-423.03 78.57,-411.79 68.49,-401.99"/>
<polygon fill="black" stroke="black" points="70.74,-399.29 61.13,-394.83 65.86,-404.31 70.74,-399.29"/>
</g>
<!-- system_clk_init -->
<g id="node9" class="node">
<title>system_clk_init</title>
<ellipse fill="none" stroke="black" cx="211.85" cy="-378" rx="81.49" ry="18"/>
<text text-anchor="middle" x="211.85" y="-374.3" font-family="Times,serif" font-size="14.00">system_clk_init</text>
</g>
<!-- disable_interrupt&#45;&gt;system_clk_init -->
<g id="edge10" class="edge">
<title>disable_interrupt&#45;&gt;system_clk_init</title>
<path fill="none" stroke="black" d="M139.36,-432.41C151.9,-423.17 167.69,-411.54 181.33,-401.49"/>
<polygon fill="black" stroke="black" points="183.52,-404.22 189.49,-395.47 179.37,-398.58 183.52,-404.22"/>
</g>
<!-- wait_for_serial -->
<g id="node3" class="node">
<title>wait_for_serial</title>
<ellipse fill="none" stroke="black" cx="214.85" cy="-18" rx="78.79" ry="18"/>
<text text-anchor="middle" x="214.85" y="-14.3" font-family="Times,serif" font-size="14.00">wait_for_serial</text>
</g>
<!-- enable_interrupt&#45;&gt;wait_for_serial -->
<g id="edge17" class="edge">
<title>enable_interrupt&#45;&gt;wait_for_serial</title>
<path fill="none" stroke="black" d="M131.58,-217.26C76.82,-189.24 -22.16,-128.33 20.85,-72 35.58,-52.7 91.58,-38.72 139.66,-29.99"/>
<polygon fill="black" stroke="black" points="140.54,-33.39 149.78,-28.2 139.32,-26.49 140.54,-33.39"/>
</g>
<!-- ping_gas_sensor -->
<g id="node5" class="node">
<title>ping_gas_sensor</title>
<ellipse fill="none" stroke="black" cx="116.85" cy="-90" rx="87.18" ry="18"/>
<text text-anchor="middle" x="116.85" y="-86.3" font-family="Times,serif" font-size="14.00">ping_gas_sensor</text>
</g>
<!-- enable_interrupt&#45;&gt;ping_gas_sensor -->
<g id="edge6" class="edge">
<title>enable_interrupt&#45;&gt;ping_gas_sensor</title>
<path fill="none" stroke="black" d="M148.01,-215.9C139.54,-206.19 129.99,-193.34 124.85,-180 117.23,-160.25 115.46,-136.27 115.47,-118.18"/>
<polygon fill="black" stroke="black" points="118.97,-118.09 115.66,-108.02 111.97,-117.96 118.97,-118.09"/>
</g>
<!-- init_7seg_display -->
<g id="node8" class="node">
<title>init_7seg_display</title>
<ellipse fill="none" stroke="black" cx="223.85" cy="-162" rx="90.18" ry="18"/>
<text text-anchor="middle" x="223.85" y="-158.3" font-family="Times,serif" font-size="14.00">init_7seg_display</text>
</g>
<!-- enable_interrupt&#45;&gt;init_7seg_display -->
<g id="edge3" class="edge">
<title>enable_interrupt&#45;&gt;init_7seg_display</title>
<path fill="none" stroke="black" d="M179.13,-216.05C186.3,-207.54 195.13,-197.07 203.04,-187.68"/>
<polygon fill="black" stroke="black" points="205.93,-189.69 209.7,-179.79 200.57,-185.18 205.93,-189.69"/>
</g>
<!-- ping_temperature_sensor -->
<g id="node10" class="node">
<title>ping_temperature_sensor</title>
<ellipse fill="none" stroke="black" cx="461.85" cy="-162" rx="129.18" ry="18"/>
<text text-anchor="middle" x="461.85" y="-158.3" font-family="Times,serif" font-size="14.00">ping_temperature_sensor</text>
</g>
<!-- enable_interrupt&#45;&gt;ping_temperature_sensor -->
<g id="edge13" class="edge">
<title>enable_interrupt&#45;&gt;ping_temperature_sensor</title>
<path fill="none" stroke="black" d="M220.36,-219.92C268.07,-208.67 337.22,-192.37 389.3,-180.1"/>
<polygon fill="black" stroke="black" points="390.22,-183.48 399.15,-177.78 388.61,-176.66 390.22,-183.48"/>
</g>
<!-- ping_gas_sensor&#45;&gt;wait_for_serial -->
<g id="edge7" class="edge">
<title>ping_gas_sensor&#45;&gt;wait_for_serial</title>
<path fill="none" stroke="black" d="M140.07,-72.41C153.01,-63.17 169.3,-51.54 183.36,-41.49"/>
<polygon fill="black" stroke="black" points="185.69,-44.13 191.79,-35.47 181.62,-38.43 185.69,-44.13"/>
</g>
<!-- setup_serial -->
<g id="node6" class="node">
<title>setup_serial</title>
<ellipse fill="none" stroke="black" cx="94.85" cy="-306" rx="66.89" ry="18"/>
<text text-anchor="middle" x="94.85" y="-302.3" font-family="Times,serif" font-size="14.00">setup_serial</text>
</g>
<!-- setup_serial&#45;&gt;enable_interrupt -->
<g id="edge16" class="edge">
<title>setup_serial&#45;&gt;enable_interrupt</title>
<path fill="none" stroke="black" d="M111.44,-288.41C120.2,-279.65 131.11,-268.73 140.79,-259.06"/>
<polygon fill="black" stroke="black" points="143.29,-261.5 147.89,-251.96 138.34,-256.55 143.29,-261.5"/>
</g>
<!-- setup_i2c -->
<g id="node7" class="node">
<title>setup_i2c</title>
<ellipse fill="none" stroke="black" cx="234.85" cy="-306" rx="54.69" ry="18"/>
<text text-anchor="middle" x="234.85" y="-302.3" font-family="Times,serif" font-size="14.00">setup_i2c</text>
</g>
<!-- setup_i2c&#45;&gt;enable_interrupt -->
<g id="edge2" class="edge">
<title>setup_i2c&#45;&gt;enable_interrupt</title>
<path fill="none" stroke="black" d="M218.61,-288.76C209.86,-280.01 198.88,-269.03 189.13,-259.28"/>
<polygon fill="black" stroke="black" points="191.52,-256.72 181.97,-252.12 186.57,-261.67 191.52,-256.72"/>
</g>
<!-- print_init_banner -->
<g id="node12" class="node">
<title>print_init_banner</title>
<ellipse fill="none" stroke="black" cx="312.85" cy="-90" rx="90.98" ry="18"/>
<text text-anchor="middle" x="312.85" y="-86.3" font-family="Times,serif" font-size="14.00">print_init_banner</text>
</g>
<!-- init_7seg_display&#45;&gt;print_init_banner -->
<g id="edge4" class="edge">
<title>init_7seg_display&#45;&gt;print_init_banner</title>
<path fill="none" stroke="black" d="M244.94,-144.41C256.49,-135.32 270.99,-123.92 283.62,-113.99"/>
<polygon fill="black" stroke="black" points="285.9,-116.65 291.6,-107.71 281.57,-111.14 285.9,-116.65"/>
</g>
<!-- system_clk_init&#45;&gt;setup_serial -->
<g id="edge15" class="edge">
<title>system_clk_init&#45;&gt;setup_serial</title>
<path fill="none" stroke="black" d="M185,-360.94C168.69,-351.18 147.67,-338.6 130.03,-328.05"/>
<polygon fill="black" stroke="black" points="131.54,-324.87 121.16,-322.74 127.94,-330.88 131.54,-324.87"/>
</g>
<!-- system_clk_init&#45;&gt;setup_i2c -->
<g id="edge1" class="edge">
<title>system_clk_init&#45;&gt;setup_i2c</title>
<path fill="none" stroke="black" d="M217.53,-359.7C220.09,-351.9 223.18,-342.51 226.03,-333.83"/>
<polygon fill="black" stroke="black" points="229.43,-334.7 229.23,-324.1 222.78,-332.51 229.43,-334.7"/>
</g>
<!-- timer0_init -->
<g id="node11" class="node">
<title>timer0_init</title>
<ellipse fill="none" stroke="black" cx="368.85" cy="-306" rx="61.99" ry="18"/>
<text text-anchor="middle" x="368.85" y="-302.3" font-family="Times,serif" font-size="14.00">timer0_init</text>
</g>
<!-- system_clk_init&#45;&gt;timer0_init -->
<g id="edge11" class="edge">
<title>system_clk_init&#45;&gt;timer0_init</title>
<path fill="none" stroke="black" d="M246.3,-361.64C270.15,-351 302.03,-336.79 327.29,-325.53"/>
<polygon fill="black" stroke="black" points="328.91,-328.64 336.61,-321.37 326.06,-322.25 328.91,-328.64"/>
</g>
<!-- ping_temperature_sensor&#45;&gt;wait_for_serial -->
<g id="edge14" class="edge">
<title>ping_temperature_sensor&#45;&gt;wait_for_serial</title>
<path fill="none" stroke="black" d="M456.96,-143.88C450.31,-123.67 436.45,-90.49 412.85,-72 380.32,-46.52 336.56,-33.25 298.45,-26.35"/>
<polygon fill="black" stroke="black" points="298.83,-22.87 288.38,-24.65 297.66,-29.77 298.83,-22.87"/>
</g>
<!-- timer0_init&#45;&gt;enable_interrupt -->
<g id="edge12" class="edge">
<title>timer0_init&#45;&gt;enable_interrupt</title>
<path fill="none" stroke="black" d="M330.48,-291.83C298.61,-280.9 252.96,-265.24 217.65,-253.12"/>
<polygon fill="black" stroke="black" points="218.58,-249.74 207.99,-249.8 216.31,-256.36 218.58,-249.74"/>
</g>
<!-- print_init_banner&#45;&gt;wait_for_serial -->
<g id="edge5" class="edge">
<title>print_init_banner&#45;&gt;wait_for_serial</title>
<path fill="none" stroke="black" d="M289.62,-72.41C276.68,-63.17 260.4,-51.54 246.33,-41.49"/>
<polygon fill="black" stroke="black" points="248.08,-38.43 237.9,-35.47 244.01,-44.13 248.08,-38.43"/>
</g>
</g>
</svg>
